<?xml version="1.0" encoding="UTF-8" standalone="no"?>
<svg
   xmlns:dc="http://purl.org/dc/elements/1.1/"
   xmlns:cc="http://creativecommons.org/ns#"
   xmlns:rdf="http://www.w3.org/1999/02/22-rdf-syntax-ns#"
   xmlns:svg="http://www.w3.org/2000/svg"
   xmlns="http://www.w3.org/2000/svg"
   xmlns:xlink="http://www.w3.org/1999/xlink"
   xmlns:sodipodi="http://sodipodi.sourceforge.net/DTD/sodipodi-0.dtd"
   xmlns:inkscape="http://www.inkscape.org/namespaces/inkscape"
   inkscape:export-ydpi="300"
   inkscape:export-xdpi="300"
   inkscape:export-filename="/home/euzenmendenzien/Documents/FER/semestar10/Diplomski/theoretical/paper/resources/images/MF/intro/autoencoder.png"
   sodipodi:docname="autoencoder.svg"
   inkscape:version="1.0 (4035a4fb49, 2020-05-01)"
   width="210mm"
   height="297mm"
   viewBox="0 0 210 297"
   version="1.1"
   id="svg8">
  <defs
     id="defs2">
    <marker
       inkscape:stockid="Arrow2Mend"
       orient="auto"
       refY="0.0"
       refX="0.0"
       id="marker4329"
       style="overflow:visible;"
       inkscape:isstock="true">
      <path
         id="path4327"
         style="fill-rule:evenodd;stroke-width:0.625;stroke-linejoin:round;stroke:#000000;stroke-opacity:1;fill:#000000;fill-opacity:1"
         d="M 8.7185878,4.0337352 L -2.2072895,0.016013256 L 8.7185884,-4.0017078 C 6.9730900,-1.6296469 6.9831476,1.6157441 8.7185878,4.0337352 z "
         transform="scale(0.6) rotate(180) translate(0,0)" />
    </marker>
    <inkscape:path-effect
       effect="bspline"
       id="path-effect4325"
       is_visible="true"
       lpeversion="1"
       weight="33.333333"
       steps="2"
       helper_size="0"
       apply_no_weight="true"
       apply_with_weight="true"
       only_selected="false" />
    <marker
       inkscape:collect="always"
       inkscape:isstock="true"
       style="overflow:visible;"
       id="marker4247"
       refX="0.0"
       refY="0.0"
       orient="auto"
       inkscape:stockid="Arrow2Mend">
      <path
         transform="scale(0.6) rotate(180) translate(0,0)"
         d="M 8.7185878,4.0337352 L -2.2072895,0.016013256 L 8.7185884,-4.0017078 C 6.9730900,-1.6296469 6.9831476,1.6157441 8.7185878,4.0337352 z "
         style="fill-rule:evenodd;stroke-width:0.625;stroke-linejoin:round;stroke:#000000;stroke-opacity:1;fill:#000000;fill-opacity:1"
         id="path4245" />
    </marker>
    <inkscape:path-effect
       only_selected="false"
       apply_with_weight="true"
       apply_no_weight="true"
       helper_size="0"
       steps="2"
       weight="33.333333"
       lpeversion="1"
       is_visible="true"
       id="path-effect4243"
       effect="bspline" />
    <marker
       inkscape:collect="always"
       inkscape:stockid="Arrow2Mend"
       orient="auto"
       refY="0.0"
       refX="0.0"
       id="marker4167"
       style="overflow:visible;"
       inkscape:isstock="true">
      <path
         id="path4165"
         style="fill-rule:evenodd;stroke-width:0.625;stroke-linejoin:round;stroke:#000000;stroke-opacity:1;fill:#000000;fill-opacity:1"
         d="M 8.7185878,4.0337352 L -2.2072895,0.016013256 L 8.7185884,-4.0017078 C 6.9730900,-1.6296469 6.9831476,1.6157441 8.7185878,4.0337352 z "
         transform="scale(0.6) rotate(180) translate(0,0)" />
    </marker>
    <inkscape:path-effect
       effect="bspline"
       id="path-effect4163"
       is_visible="true"
       lpeversion="1"
       weight="33.333333"
       steps="2"
       helper_size="0"
       apply_no_weight="true"
       apply_with_weight="true"
       only_selected="false" />
    <marker
       inkscape:collect="always"
       inkscape:isstock="true"
       style="overflow:visible;"
       id="Arrow2Mend"
       refX="0.0"
       refY="0.0"
       orient="auto"
       inkscape:stockid="Arrow2Mend">
      <path
         transform="scale(0.6) rotate(180) translate(0,0)"
         d="M 8.7185878,4.0337352 L -2.2072895,0.016013256 L 8.7185884,-4.0017078 C 6.9730900,-1.6296469 6.9831476,1.6157441 8.7185878,4.0337352 z "
         style="fill-rule:evenodd;stroke-width:0.625;stroke-linejoin:round;stroke:#000000;stroke-opacity:1;fill:#000000;fill-opacity:1"
         id="path1532" />
    </marker>
    <inkscape:path-effect
       only_selected="false"
       apply_with_weight="true"
       apply_no_weight="true"
       helper_size="0"
       steps="2"
       weight="33.333333"
       lpeversion="1"
       is_visible="true"
       id="path-effect4121"
       effect="bspline" />
    <marker
       inkscape:stockid="Arrow2Mend"
       orient="auto"
       refY="0.0"
       refX="0.0"
       id="marker2455"
       style="overflow:visible;"
       inkscape:isstock="true">
      <path
         id="path2453"
         style="fill-rule:evenodd;stroke-width:0.625;stroke-linejoin:round;stroke:#000000;stroke-opacity:1;fill:#000000;fill-opacity:1"
         d="M 8.7185878,4.0337352 L -2.2072895,0.016013256 L 8.7185884,-4.0017078 C 6.9730900,-1.6296469 6.9831476,1.6157441 8.7185878,4.0337352 z "
         transform="scale(0.6) rotate(180) translate(0,0)" />
    </marker>
    <marker
       inkscape:stockid="Arrow2Mend"
       orient="auto"
       refY="0.0"
       refX="0.0"
       id="marker2445"
       style="overflow:visible;"
       inkscape:isstock="true">
      <path
         id="path2443"
         style="fill-rule:evenodd;stroke-width:0.625;stroke-linejoin:round;stroke:#000000;stroke-opacity:1;fill:#000000;fill-opacity:1"
         d="M 8.7185878,4.0337352 L -2.2072895,0.016013256 L 8.7185884,-4.0017078 C 6.9730900,-1.6296469 6.9831476,1.6157441 8.7185878,4.0337352 z "
         transform="scale(0.6) rotate(180) translate(0,0)" />
    </marker>
    <marker
       inkscape:stockid="Arrow2Mend"
       orient="auto"
       refY="0.0"
       refX="0.0"
       id="marker2435"
       style="overflow:visible;"
       inkscape:isstock="true">
      <path
         id="path2433"
         style="fill-rule:evenodd;stroke-width:0.625;stroke-linejoin:round;stroke:#000000;stroke-opacity:1;fill:#000000;fill-opacity:1"
         d="M 8.7185878,4.0337352 L -2.2072895,0.016013256 L 8.7185884,-4.0017078 C 6.9730900,-1.6296469 6.9831476,1.6157441 8.7185878,4.0337352 z "
         transform="scale(0.6) rotate(180) translate(0,0)" />
    </marker>
    <marker
       inkscape:stockid="Arrow2Mend"
       orient="auto"
       refY="0.0"
       refX="0.0"
       id="marker2425"
       style="overflow:visible;"
       inkscape:isstock="true">
      <path
         id="path2423"
         style="fill-rule:evenodd;stroke-width:0.625;stroke-linejoin:round;stroke:#000000;stroke-opacity:1;fill:#000000;fill-opacity:1"
         d="M 8.7185878,4.0337352 L -2.2072895,0.016013256 L 8.7185884,-4.0017078 C 6.9730900,-1.6296469 6.9831476,1.6157441 8.7185878,4.0337352 z "
         transform="scale(0.6) rotate(180) translate(0,0)" />
    </marker>
    <inkscape:path-effect
       only_selected="false"
       apply_with_weight="true"
       apply_no_weight="true"
       helper_size="0"
       steps="2"
       weight="33.333333"
       lpeversion="1"
       is_visible="true"
       id="path-effect1503"
       effect="bspline" />
    <inkscape:path-effect
       only_selected="false"
       apply_with_weight="true"
       apply_no_weight="true"
       helper_size="0"
       steps="2"
       weight="33.333333"
       lpeversion="1"
       is_visible="true"
       id="path-effect1499"
       effect="bspline" />
    <inkscape:path-effect
       effect="bspline"
       id="path-effect1493"
       is_visible="true"
       lpeversion="1"
       weight="33.333333"
       steps="2"
       helper_size="0"
       apply_no_weight="true"
       apply_with_weight="true"
       only_selected="false" />
    <inkscape:path-effect
       only_selected="false"
       apply_with_weight="true"
       apply_no_weight="true"
       helper_size="0"
       steps="2"
       weight="33.333333"
       lpeversion="1"
       is_visible="true"
       id="path-effect1483"
       effect="bspline" />
    <g
       id="g4772">
      <symbol
         id="symbol2827"
         overflow="visible">
        <path
           id="path8082"
           d=""
           style="stroke:none;" />
      </symbol>
      <symbol
         id="symbol1872"
         overflow="visible">
        <path
           id="path8403"
           d="M 3.65625 -3.984375 L 4.515625 -3.984375 C 4.71875 -3.984375 4.8125 -3.984375 4.8125 -4.1875 C 4.8125 -4.296875 4.71875 -4.296875 4.546875 -4.296875 L 3.71875 -4.296875 L 3.921875 -5.4375 C 3.96875 -5.640625 4.109375 -6.34375 4.171875 -6.46875 C 4.25 -6.65625 4.421875 -6.8125 4.640625 -6.8125 C 4.671875 -6.8125 4.9375 -6.8125 5.125 -6.625 C 4.6875 -6.59375 4.578125 -6.234375 4.578125 -6.09375 C 4.578125 -5.859375 4.765625 -5.734375 4.953125 -5.734375 C 5.21875 -5.734375 5.5 -5.96875 5.5 -6.34375 C 5.5 -6.796875 5.046875 -7.03125 4.640625 -7.03125 C 4.296875 -7.03125 3.671875 -6.84375 3.375 -5.859375 C 3.3125 -5.65625 3.28125 -5.546875 3.046875 -4.296875 L 2.359375 -4.296875 C 2.15625 -4.296875 2.046875 -4.296875 2.046875 -4.109375 C 2.046875 -3.984375 2.140625 -3.984375 2.328125 -3.984375 L 2.984375 -3.984375 L 2.25 -0.046875 C 2.0625 0.921875 1.890625 1.828125 1.375 1.828125 C 1.328125 1.828125 1.09375 1.828125 0.890625 1.640625 C 1.359375 1.609375 1.453125 1.25 1.453125 1.109375 C 1.453125 0.875 1.265625 0.75 1.078125 0.75 C 0.8125 0.75 0.53125 0.984375 0.53125 1.359375 C 0.53125 1.796875 0.96875 2.046875 1.375 2.046875 C 1.921875 2.046875 2.328125 1.453125 2.5 1.078125 C 2.828125 0.453125 3.046875 -0.75 3.0625 -0.828125 Z M 3.65625 -3.984375 "
           style="stroke:none;" />
      </symbol>
      <symbol
         id="symbol4190"
         overflow="visible">
        <path
           id="path2461"
           d="M 3.328125 -3.015625 C 3.390625 -3.265625 3.625 -4.1875 4.3125 -4.1875 C 4.359375 -4.1875 4.609375 -4.1875 4.8125 -4.0625 C 4.53125 -4 4.34375 -3.765625 4.34375 -3.515625 C 4.34375 -3.359375 4.453125 -3.171875 4.71875 -3.171875 C 4.9375 -3.171875 5.25 -3.34375 5.25 -3.75 C 5.25 -4.265625 4.671875 -4.40625 4.328125 -4.40625 C 3.75 -4.40625 3.40625 -3.875 3.28125 -3.65625 C 3.03125 -4.3125 2.5 -4.40625 2.203125 -4.40625 C 1.171875 -4.40625 0.59375 -3.125 0.59375 -2.875 C 0.59375 -2.765625 0.703125 -2.765625 0.71875 -2.765625 C 0.796875 -2.765625 0.828125 -2.796875 0.84375 -2.875 C 1.1875 -3.9375 1.84375 -4.1875 2.1875 -4.1875 C 2.375 -4.1875 2.71875 -4.09375 2.71875 -3.515625 C 2.71875 -3.203125 2.546875 -2.546875 2.1875 -1.140625 C 2.03125 -0.53125 1.671875 -0.109375 1.234375 -0.109375 C 1.171875 -0.109375 0.953125 -0.109375 0.734375 -0.234375 C 0.984375 -0.296875 1.203125 -0.5 1.203125 -0.78125 C 1.203125 -1.046875 0.984375 -1.125 0.84375 -1.125 C 0.53125 -1.125 0.296875 -0.875 0.296875 -0.546875 C 0.296875 -0.09375 0.78125 0.109375 1.21875 0.109375 C 1.890625 0.109375 2.25 -0.59375 2.265625 -0.640625 C 2.390625 -0.28125 2.75 0.109375 3.34375 0.109375 C 4.375 0.109375 4.9375 -1.171875 4.9375 -1.421875 C 4.9375 -1.53125 4.859375 -1.53125 4.828125 -1.53125 C 4.734375 -1.53125 4.71875 -1.484375 4.6875 -1.421875 C 4.359375 -0.34375 3.6875 -0.109375 3.375 -0.109375 C 2.984375 -0.109375 2.828125 -0.421875 2.828125 -0.765625 C 2.828125 -0.984375 2.875 -1.203125 2.984375 -1.640625 Z M 3.328125 -3.015625 "
           style="stroke:none;" />
      </symbol>
      <symbol
         id="symbol9379"
         overflow="visible">
        <path
           id="path2924"
           d=""
           style="stroke:none;" />
      </symbol>
      <symbol
         id="symbol5820"
         overflow="visible">
        <path
           id="path9187"
           d="M 3.296875 2.390625 C 3.296875 2.359375 3.296875 2.34375 3.125 2.171875 C 1.890625 0.921875 1.5625 -0.96875 1.5625 -2.5 C 1.5625 -4.234375 1.9375 -5.96875 3.171875 -7.203125 C 3.296875 -7.328125 3.296875 -7.34375 3.296875 -7.375 C 3.296875 -7.453125 3.265625 -7.484375 3.203125 -7.484375 C 3.09375 -7.484375 2.203125 -6.796875 1.609375 -5.53125 C 1.109375 -4.4375 0.984375 -3.328125 0.984375 -2.5 C 0.984375 -1.71875 1.09375 -0.515625 1.640625 0.625 C 2.25 1.84375 3.09375 2.5 3.203125 2.5 C 3.265625 2.5 3.296875 2.46875 3.296875 2.390625 Z M 3.296875 2.390625 "
           style="stroke:none;" />
      </symbol>
      <symbol
         id="symbol7285"
         overflow="visible">
        <path
           id="path893"
           d="M 2.875 -2.5 C 2.875 -3.265625 2.765625 -4.46875 2.21875 -5.609375 C 1.625 -6.828125 0.765625 -7.484375 0.671875 -7.484375 C 0.609375 -7.484375 0.5625 -7.4375 0.5625 -7.375 C 0.5625 -7.34375 0.5625 -7.328125 0.75 -7.140625 C 1.734375 -6.15625 2.296875 -4.578125 2.296875 -2.5 C 2.296875 -0.78125 1.9375 0.96875 0.703125 2.21875 C 0.5625 2.34375 0.5625 2.359375 0.5625 2.390625 C 0.5625 2.453125 0.609375 2.5 0.671875 2.5 C 0.765625 2.5 1.671875 1.8125 2.25 0.546875 C 2.765625 -0.546875 2.875 -1.65625 2.875 -2.5 Z M 2.875 -2.5 "
           style="stroke:none;" />
      </symbol>
    </g>
    <g
       id="g6781">
      <symbol
         id="symbol7141"
         overflow="visible">
        <path
           id="path3270"
           d=""
           style="stroke:none;" />
      </symbol>
      <symbol
         id="symbol2140"
         overflow="visible">
        <path
           id="path1435"
           d="M 4.6875 -3.765625 C 4.703125 -3.8125 4.71875 -3.875 4.71875 -3.9375 C 4.71875 -4.109375 4.609375 -4.203125 4.4375 -4.203125 C 4.34375 -4.203125 4.0625 -4.140625 4.03125 -3.78125 C 3.84375 -4.140625 3.5 -4.40625 3.09375 -4.40625 C 1.96875 -4.40625 0.734375 -3.015625 0.734375 -1.578125 C 0.734375 -0.59375 1.328125 0 2.046875 0 C 2.640625 0 3.109375 -0.46875 3.203125 -0.578125 L 3.21875 -0.5625 C 3.015625 0.3125 2.890625 0.734375 2.890625 0.75 C 2.84375 0.84375 2.515625 1.828125 1.453125 1.828125 C 1.265625 1.828125 0.9375 1.8125 0.65625 1.71875 C 0.953125 1.640625 1.0625 1.375 1.0625 1.203125 C 1.0625 1.046875 0.953125 0.859375 0.6875 0.859375 C 0.46875 0.859375 0.15625 1.03125 0.15625 1.4375 C 0.15625 1.84375 0.515625 2.046875 1.46875 2.046875 C 2.71875 2.046875 3.4375 1.265625 3.59375 0.671875 Z M 3.40625 -1.28125 C 3.34375 -1.015625 3.109375 -0.765625 2.890625 -0.578125 C 2.6875 -0.40625 2.375 -0.21875 2.078125 -0.21875 C 1.578125 -0.21875 1.4375 -0.734375 1.4375 -1.140625 C 1.4375 -1.609375 1.71875 -2.796875 2 -3.296875 C 2.265625 -3.78125 2.6875 -4.1875 3.109375 -4.1875 C 3.765625 -4.1875 3.90625 -3.375 3.90625 -3.328125 C 3.90625 -3.28125 3.890625 -3.21875 3.875 -3.1875 Z M 3.40625 -1.28125 "
           style="stroke:none;" />
      </symbol>
      <symbol
         id="symbol8177"
         overflow="visible">
        <path
           id="path6590"
           d="M 2.859375 -6.8125 C 2.859375 -6.8125 2.859375 -6.921875 2.734375 -6.921875 C 2.5 -6.921875 1.78125 -6.84375 1.515625 -6.8125 C 1.4375 -6.8125 1.328125 -6.796875 1.328125 -6.625 C 1.328125 -6.5 1.421875 -6.5 1.5625 -6.5 C 2.046875 -6.5 2.0625 -6.4375 2.0625 -6.328125 L 2.03125 -6.125 L 0.59375 -0.390625 C 0.546875 -0.25 0.546875 -0.234375 0.546875 -0.171875 C 0.546875 0.0625 0.75 0.109375 0.84375 0.109375 C 1 0.109375 1.15625 -0.015625 1.203125 -0.15625 L 1.390625 -0.90625 L 1.609375 -1.796875 C 1.671875 -2.03125 1.734375 -2.25 1.78125 -2.46875 C 1.796875 -2.53125 1.890625 -2.859375 1.890625 -2.921875 C 1.921875 -3.015625 2.234375 -3.5625 2.578125 -3.84375 C 2.796875 -4 3.09375 -4.1875 3.53125 -4.1875 C 3.953125 -4.1875 4.0625 -3.84375 4.0625 -3.484375 C 4.0625 -2.953125 3.6875 -1.859375 3.453125 -1.25 C 3.375 -1.03125 3.3125 -0.90625 3.3125 -0.703125 C 3.3125 -0.234375 3.671875 0.109375 4.140625 0.109375 C 5.078125 0.109375 5.4375 -1.34375 5.4375 -1.421875 C 5.4375 -1.53125 5.359375 -1.53125 5.328125 -1.53125 C 5.21875 -1.53125 5.21875 -1.5 5.171875 -1.34375 C 5.03125 -0.8125 4.703125 -0.109375 4.15625 -0.109375 C 3.984375 -0.109375 3.921875 -0.203125 3.921875 -0.4375 C 3.921875 -0.6875 4 -0.921875 4.09375 -1.140625 C 4.25 -1.578125 4.703125 -2.765625 4.703125 -3.34375 C 4.703125 -3.984375 4.3125 -4.40625 3.5625 -4.40625 C 2.9375 -4.40625 2.453125 -4.09375 2.078125 -3.640625 Z M 2.859375 -6.8125 "
           style="stroke:none;" />
      </symbol>
      <symbol
         id="symbol3624"
         overflow="visible">
        <path
           id="path3015"
           d=""
           style="stroke:none;" />
      </symbol>
      <symbol
         id="symbol9310"
         overflow="visible">
        <path
           id="path767"
           d="M 3.296875 2.390625 C 3.296875 2.359375 3.296875 2.34375 3.125 2.171875 C 1.890625 0.921875 1.5625 -0.96875 1.5625 -2.5 C 1.5625 -4.234375 1.9375 -5.96875 3.171875 -7.203125 C 3.296875 -7.328125 3.296875 -7.34375 3.296875 -7.375 C 3.296875 -7.453125 3.265625 -7.484375 3.203125 -7.484375 C 3.09375 -7.484375 2.203125 -6.796875 1.609375 -5.53125 C 1.109375 -4.4375 0.984375 -3.328125 0.984375 -2.5 C 0.984375 -1.71875 1.09375 -0.515625 1.640625 0.625 C 2.25 1.84375 3.09375 2.5 3.203125 2.5 C 3.265625 2.5 3.296875 2.46875 3.296875 2.390625 Z M 3.296875 2.390625 "
           style="stroke:none;" />
      </symbol>
      <symbol
         id="symbol7864"
         overflow="visible">
        <path
           id="path9394"
           d="M 2.875 -2.5 C 2.875 -3.265625 2.765625 -4.46875 2.21875 -5.609375 C 1.625 -6.828125 0.765625 -7.484375 0.671875 -7.484375 C 0.609375 -7.484375 0.5625 -7.4375 0.5625 -7.375 C 0.5625 -7.34375 0.5625 -7.328125 0.75 -7.140625 C 1.734375 -6.15625 2.296875 -4.578125 2.296875 -2.5 C 2.296875 -0.78125 1.9375 0.96875 0.703125 2.21875 C 0.5625 2.34375 0.5625 2.359375 0.5625 2.390625 C 0.5625 2.453125 0.609375 2.5 0.671875 2.5 C 0.765625 2.5 1.671875 1.8125 2.25 0.546875 C 2.765625 -0.546875 2.875 -1.65625 2.875 -2.5 Z M 2.875 -2.5 "
           style="stroke:none;" />
      </symbol>
    </g>
    <g
       id="g5618">
      <symbol
         id="symbol5221"
         overflow="visible">
        <path
           id="path307"
           d=""
           style="stroke:none;" />
      </symbol>
      <symbol
         id="symbol6042"
         overflow="visible">
        <path
           id="path8351"
           d="M 3.328125 -3.015625 C 3.390625 -3.265625 3.625 -4.1875 4.3125 -4.1875 C 4.359375 -4.1875 4.609375 -4.1875 4.8125 -4.0625 C 4.53125 -4 4.34375 -3.765625 4.34375 -3.515625 C 4.34375 -3.359375 4.453125 -3.171875 4.71875 -3.171875 C 4.9375 -3.171875 5.25 -3.34375 5.25 -3.75 C 5.25 -4.265625 4.671875 -4.40625 4.328125 -4.40625 C 3.75 -4.40625 3.40625 -3.875 3.28125 -3.65625 C 3.03125 -4.3125 2.5 -4.40625 2.203125 -4.40625 C 1.171875 -4.40625 0.59375 -3.125 0.59375 -2.875 C 0.59375 -2.765625 0.703125 -2.765625 0.71875 -2.765625 C 0.796875 -2.765625 0.828125 -2.796875 0.84375 -2.875 C 1.1875 -3.9375 1.84375 -4.1875 2.1875 -4.1875 C 2.375 -4.1875 2.71875 -4.09375 2.71875 -3.515625 C 2.71875 -3.203125 2.546875 -2.546875 2.1875 -1.140625 C 2.03125 -0.53125 1.671875 -0.109375 1.234375 -0.109375 C 1.171875 -0.109375 0.953125 -0.109375 0.734375 -0.234375 C 0.984375 -0.296875 1.203125 -0.5 1.203125 -0.78125 C 1.203125 -1.046875 0.984375 -1.125 0.84375 -1.125 C 0.53125 -1.125 0.296875 -0.875 0.296875 -0.546875 C 0.296875 -0.09375 0.78125 0.109375 1.21875 0.109375 C 1.890625 0.109375 2.25 -0.59375 2.265625 -0.640625 C 2.390625 -0.28125 2.75 0.109375 3.34375 0.109375 C 4.375 0.109375 4.9375 -1.171875 4.9375 -1.421875 C 4.9375 -1.53125 4.859375 -1.53125 4.828125 -1.53125 C 4.734375 -1.53125 4.71875 -1.484375 4.6875 -1.421875 C 4.359375 -0.34375 3.6875 -0.109375 3.375 -0.109375 C 2.984375 -0.109375 2.828125 -0.421875 2.828125 -0.765625 C 2.828125 -0.984375 2.875 -1.203125 2.984375 -1.640625 Z M 3.328125 -3.015625 "
           style="stroke:none;" />
      </symbol>
    </g>
    <g
       id="g5157">
      <symbol
         id="symbol3029"
         overflow="visible">
        <path
           id="path6848"
           d=""
           style="stroke:none;" />
      </symbol>
      <symbol
         id="symbol5322"
         overflow="visible">
        <path
           id="path4271"
           d="M 2.859375 -6.8125 C 2.859375 -6.8125 2.859375 -6.921875 2.734375 -6.921875 C 2.5 -6.921875 1.78125 -6.84375 1.515625 -6.8125 C 1.4375 -6.8125 1.328125 -6.796875 1.328125 -6.625 C 1.328125 -6.5 1.421875 -6.5 1.5625 -6.5 C 2.046875 -6.5 2.0625 -6.4375 2.0625 -6.328125 L 2.03125 -6.125 L 0.59375 -0.390625 C 0.546875 -0.25 0.546875 -0.234375 0.546875 -0.171875 C 0.546875 0.0625 0.75 0.109375 0.84375 0.109375 C 1 0.109375 1.15625 -0.015625 1.203125 -0.15625 L 1.390625 -0.90625 L 1.609375 -1.796875 C 1.671875 -2.03125 1.734375 -2.25 1.78125 -2.46875 C 1.796875 -2.53125 1.890625 -2.859375 1.890625 -2.921875 C 1.921875 -3.015625 2.234375 -3.5625 2.578125 -3.84375 C 2.796875 -4 3.09375 -4.1875 3.53125 -4.1875 C 3.953125 -4.1875 4.0625 -3.84375 4.0625 -3.484375 C 4.0625 -2.953125 3.6875 -1.859375 3.453125 -1.25 C 3.375 -1.03125 3.3125 -0.90625 3.3125 -0.703125 C 3.3125 -0.234375 3.671875 0.109375 4.140625 0.109375 C 5.078125 0.109375 5.4375 -1.34375 5.4375 -1.421875 C 5.4375 -1.53125 5.359375 -1.53125 5.328125 -1.53125 C 5.21875 -1.53125 5.21875 -1.5 5.171875 -1.34375 C 5.03125 -0.8125 4.703125 -0.109375 4.15625 -0.109375 C 3.984375 -0.109375 3.921875 -0.203125 3.921875 -0.4375 C 3.921875 -0.6875 4 -0.921875 4.09375 -1.140625 C 4.25 -1.578125 4.703125 -2.765625 4.703125 -3.34375 C 4.703125 -3.984375 4.3125 -4.40625 3.5625 -4.40625 C 2.9375 -4.40625 2.453125 -4.09375 2.078125 -3.640625 Z M 2.859375 -6.8125 "
           style="stroke:none;" />
      </symbol>
    </g>
    <g
       id="g5874">
      <symbol
         id="symbol4136"
         overflow="visible">
        <path
           id="path7646"
           d=""
           style="stroke:none;" />
      </symbol>
      <symbol
         id="symbol781"
         overflow="visible">
        <path
           id="path7117"
           d="M 3.328125 -3.015625 C 3.390625 -3.265625 3.625 -4.1875 4.3125 -4.1875 C 4.359375 -4.1875 4.609375 -4.1875 4.8125 -4.0625 C 4.53125 -4 4.34375 -3.765625 4.34375 -3.515625 C 4.34375 -3.359375 4.453125 -3.171875 4.71875 -3.171875 C 4.9375 -3.171875 5.25 -3.34375 5.25 -3.75 C 5.25 -4.265625 4.671875 -4.40625 4.328125 -4.40625 C 3.75 -4.40625 3.40625 -3.875 3.28125 -3.65625 C 3.03125 -4.3125 2.5 -4.40625 2.203125 -4.40625 C 1.171875 -4.40625 0.59375 -3.125 0.59375 -2.875 C 0.59375 -2.765625 0.703125 -2.765625 0.71875 -2.765625 C 0.796875 -2.765625 0.828125 -2.796875 0.84375 -2.875 C 1.1875 -3.9375 1.84375 -4.1875 2.1875 -4.1875 C 2.375 -4.1875 2.71875 -4.09375 2.71875 -3.515625 C 2.71875 -3.203125 2.546875 -2.546875 2.1875 -1.140625 C 2.03125 -0.53125 1.671875 -0.109375 1.234375 -0.109375 C 1.171875 -0.109375 0.953125 -0.109375 0.734375 -0.234375 C 0.984375 -0.296875 1.203125 -0.5 1.203125 -0.78125 C 1.203125 -1.046875 0.984375 -1.125 0.84375 -1.125 C 0.53125 -1.125 0.296875 -0.875 0.296875 -0.546875 C 0.296875 -0.09375 0.78125 0.109375 1.21875 0.109375 C 1.890625 0.109375 2.25 -0.59375 2.265625 -0.640625 C 2.390625 -0.28125 2.75 0.109375 3.34375 0.109375 C 4.375 0.109375 4.9375 -1.171875 4.9375 -1.421875 C 4.9375 -1.53125 4.859375 -1.53125 4.828125 -1.53125 C 4.734375 -1.53125 4.71875 -1.484375 4.6875 -1.421875 C 4.359375 -0.34375 3.6875 -0.109375 3.375 -0.109375 C 2.984375 -0.109375 2.828125 -0.421875 2.828125 -0.765625 C 2.828125 -0.984375 2.875 -1.203125 2.984375 -1.640625 Z M 3.328125 -3.015625 "
           style="stroke:none;" />
      </symbol>
      <symbol
         id="symbol3623"
         overflow="visible">
        <path
           id="path9115"
           d=""
           style="stroke:none;" />
      </symbol>
      <symbol
         id="symbol1421"
         overflow="visible">
        <path
           id="path3344"
           d="M 2.015625 -3.296875 C 2.078125 -3.40625 2.078125 -3.46875 2.078125 -3.515625 C 2.078125 -3.734375 1.890625 -3.890625 1.671875 -3.890625 C 1.40625 -3.890625 1.328125 -3.671875 1.296875 -3.5625 L 0.375 -0.546875 C 0.359375 -0.53125 0.328125 -0.453125 0.328125 -0.4375 C 0.328125 -0.359375 0.546875 -0.28125 0.609375 -0.28125 C 0.65625 -0.28125 0.65625 -0.296875 0.703125 -0.40625 Z M 2.015625 -3.296875 "
           style="stroke:none;" />
      </symbol>
    </g>
    <g
       id="g9016">
      <symbol
         id="symbol99"
         overflow="visible">
        <path
           id="path6219"
           d=""
           style="stroke:none;" />
      </symbol>
      <symbol
         id="symbol9933"
         overflow="visible">
        <path
           id="path2248"
           d="M 3.328125 -3.015625 C 3.390625 -3.265625 3.625 -4.1875 4.3125 -4.1875 C 4.359375 -4.1875 4.609375 -4.1875 4.8125 -4.0625 C 4.53125 -4 4.34375 -3.765625 4.34375 -3.515625 C 4.34375 -3.359375 4.453125 -3.171875 4.71875 -3.171875 C 4.9375 -3.171875 5.25 -3.34375 5.25 -3.75 C 5.25 -4.265625 4.671875 -4.40625 4.328125 -4.40625 C 3.75 -4.40625 3.40625 -3.875 3.28125 -3.65625 C 3.03125 -4.3125 2.5 -4.40625 2.203125 -4.40625 C 1.171875 -4.40625 0.59375 -3.125 0.59375 -2.875 C 0.59375 -2.765625 0.703125 -2.765625 0.71875 -2.765625 C 0.796875 -2.765625 0.828125 -2.796875 0.84375 -2.875 C 1.1875 -3.9375 1.84375 -4.1875 2.1875 -4.1875 C 2.375 -4.1875 2.71875 -4.09375 2.71875 -3.515625 C 2.71875 -3.203125 2.546875 -2.546875 2.1875 -1.140625 C 2.03125 -0.53125 1.671875 -0.109375 1.234375 -0.109375 C 1.171875 -0.109375 0.953125 -0.109375 0.734375 -0.234375 C 0.984375 -0.296875 1.203125 -0.5 1.203125 -0.78125 C 1.203125 -1.046875 0.984375 -1.125 0.84375 -1.125 C 0.53125 -1.125 0.296875 -0.875 0.296875 -0.546875 C 0.296875 -0.09375 0.78125 0.109375 1.21875 0.109375 C 1.890625 0.109375 2.25 -0.59375 2.265625 -0.640625 C 2.390625 -0.28125 2.75 0.109375 3.34375 0.109375 C 4.375 0.109375 4.9375 -1.171875 4.9375 -1.421875 C 4.9375 -1.53125 4.859375 -1.53125 4.828125 -1.53125 C 4.734375 -1.53125 4.71875 -1.484375 4.6875 -1.421875 C 4.359375 -0.34375 3.6875 -0.109375 3.375 -0.109375 C 2.984375 -0.109375 2.828125 -0.421875 2.828125 -0.765625 C 2.828125 -0.984375 2.875 -1.203125 2.984375 -1.640625 Z M 3.328125 -3.015625 "
           style="stroke:none;" />
      </symbol>
      <symbol
         id="symbol2726"
         overflow="visible">
        <path
           id="path8847"
           d=""
           style="stroke:none;" />
      </symbol>
      <symbol
         id="symbol60"
         overflow="visible">
        <path
           id="path4705"
           d="M 2.015625 -3.296875 C 2.078125 -3.40625 2.078125 -3.46875 2.078125 -3.515625 C 2.078125 -3.734375 1.890625 -3.890625 1.671875 -3.890625 C 1.40625 -3.890625 1.328125 -3.671875 1.296875 -3.5625 L 0.375 -0.546875 C 0.359375 -0.53125 0.328125 -0.453125 0.328125 -0.4375 C 0.328125 -0.359375 0.546875 -0.28125 0.609375 -0.28125 C 0.65625 -0.28125 0.65625 -0.296875 0.703125 -0.40625 Z M 2.015625 -3.296875 "
           style="stroke:none;" />
      </symbol>
      <symbol
         id="symbol7079"
         overflow="visible">
        <path
           id="path3616"
           d=""
           style="stroke:none;" />
      </symbol>
      <symbol
         id="symbol7810"
         overflow="visible">
        <path
           id="path3274"
           d="M 7.203125 -4.5 C 7.203125 -4.71875 7.125 -4.8125 7.0625 -4.8125 C 7.015625 -4.8125 6.921875 -4.765625 6.921875 -4.53125 C 6.875 -3.84375 6.1875 -3.4375 5.53125 -3.4375 C 4.953125 -3.4375 4.453125 -3.75 3.9375 -4.09375 C 3.40625 -4.453125 2.859375 -4.8125 2.21875 -4.8125 C 1.28125 -4.8125 0.546875 -4.109375 0.546875 -3.1875 C 0.546875 -2.96875 0.625 -2.890625 0.6875 -2.890625 C 0.78125 -2.890625 0.828125 -3.078125 0.828125 -3.125 C 0.875 -3.953125 1.6875 -4.25 2.21875 -4.25 C 2.796875 -4.25 3.296875 -3.953125 3.8125 -3.59375 C 4.34375 -3.234375 4.890625 -2.875 5.53125 -2.875 C 6.453125 -2.875 7.203125 -3.59375 7.203125 -4.5 Z M 7.203125 -2.171875 C 7.203125 -2.46875 7.078125 -2.484375 7.0625 -2.484375 C 7.015625 -2.484375 6.921875 -2.4375 6.921875 -2.21875 C 6.875 -1.53125 6.1875 -1.109375 5.53125 -1.109375 C 4.953125 -1.109375 4.453125 -1.421875 3.9375 -1.78125 C 3.40625 -2.140625 2.859375 -2.5 2.21875 -2.5 C 1.28125 -2.5 0.546875 -1.78125 0.546875 -0.875 C 0.546875 -0.640625 0.625 -0.5625 0.6875 -0.5625 C 0.78125 -0.5625 0.828125 -0.75 0.828125 -0.796875 C 0.875 -1.640625 1.6875 -1.9375 2.21875 -1.9375 C 2.796875 -1.9375 3.296875 -1.625 3.8125 -1.28125 C 4.34375 -0.921875 4.890625 -0.5625 5.53125 -0.5625 C 6.484375 -0.5625 7.203125 -1.296875 7.203125 -2.171875 Z M 7.203125 -2.171875 "
           style="stroke:none;" />
      </symbol>
    </g>
    <filter
       height="1.0000329"
       y="-1.6450921e-05"
       width="1.0000703"
       x="-3.5139417e-05"
       id="filter2749"
       style="color-interpolation-filters:sRGB"
       inkscape:collect="always">
      <feGaussianBlur
         id="feGaussianBlur2751"
         stdDeviation="0.0018951493"
         inkscape:collect="always" />
    </filter>
    <filter
       height="1.0000285"
       y="-1.4264955e-05"
       width="1.0002407"
       x="-0.00012034198"
       id="filter2753"
       style="color-interpolation-filters:sRGB"
       inkscape:collect="always">
      <feGaussianBlur
         id="feGaussianBlur2755"
         stdDeviation="0.00050142492"
         inkscape:collect="always" />
    </filter>
    <filter
       height="1.0001022"
       y="-5.1101379e-05"
       width="1.0002407"
       x="-0.00012034198"
       id="filter2757"
       style="color-interpolation-filters:sRGB"
       inkscape:collect="always">
      <feGaussianBlur
         id="feGaussianBlur2759"
         stdDeviation="0.00050142492"
         inkscape:collect="always" />
    </filter>
    <filter
       height="1.0000285"
       y="-1.4264955e-05"
       width="1.0002407"
       x="-0.00012034198"
       id="filter2761"
       style="color-interpolation-filters:sRGB"
       inkscape:collect="always">
      <feGaussianBlur
         id="feGaussianBlur2763"
         stdDeviation="0.00050142492"
         inkscape:collect="always" />
    </filter>
    <filter
       height="1.0000329"
       y="-1.6450921e-05"
       width="1.0000703"
       x="-3.5139412e-05"
       id="filter2765"
       style="color-interpolation-filters:sRGB"
       inkscape:collect="always">
      <feGaussianBlur
         id="feGaussianBlur2767"
         stdDeviation="0.00050142492"
         inkscape:collect="always" />
    </filter>
    <filter
       height="1.0003013"
       y="-0.00015066289"
       width="1.0001684"
       x="-8.4217668e-05"
       id="filter2769"
       style="color-interpolation-filters:sRGB"
       inkscape:collect="always">
      <feGaussianBlur
         id="feGaussianBlur2771"
         stdDeviation="0.00062678114"
         inkscape:collect="always" />
    </filter>
    <filter
       height="1.0003013"
       y="-0.00015066289"
       width="1.0001725"
       x="-8.6240692e-05"
       id="filter2773"
       style="color-interpolation-filters:sRGB"
       inkscape:collect="always">
      <feGaussianBlur
         id="feGaussianBlur2775"
         stdDeviation="0.00062678114"
         inkscape:collect="always" />
    </filter>
    <filter
       height="1.0006663"
       y="-0.00033312659"
       width="1.0006074"
       x="-0.00030370216"
       id="filter2777"
       style="color-interpolation-filters:sRGB"
       inkscape:collect="always">
      <feGaussianBlur
         id="feGaussianBlur2779"
         stdDeviation="0.00062678114"
         inkscape:collect="always" />
    </filter>
    <filter
       height="1.0004279"
       y="-0.0002139413"
       width="1.0006152"
       x="-0.00030758333"
       id="filter2781"
       style="color-interpolation-filters:sRGB"
       inkscape:collect="always">
      <feGaussianBlur
         id="feGaussianBlur2783"
         stdDeviation="0.00062678114"
         inkscape:collect="always" />
    </filter>
    <filter
       height="1.0003951"
       y="-0.00019754106"
       width="1.0004025"
       x="-0.00020123403"
       id="filter2785"
       style="color-interpolation-filters:sRGB"
       inkscape:collect="always">
      <feGaussianBlur
         id="feGaussianBlur2787"
         stdDeviation="0.00062678114"
         inkscape:collect="always" />
    </filter>
  </defs>
  <sodipodi:namedview
     inkscape:snap-intersection-paths="true"
     inkscape:snap-bbox-midpoints="true"
     inkscape:window-maximized="1"
     inkscape:window-y="27"
     inkscape:window-x="1920"
     inkscape:window-height="1025"
     inkscape:window-width="1920"
     inkscape:bbox-nodes="false"
     inkscape:guide-bbox="true"
     showguides="false"
     inkscape:bbox-paths="false"
     inkscape:snap-bbox-edge-midpoints="false"
     inkscape:snap-bbox="true"
     showgrid="false"
     inkscape:document-rotation="0"
     inkscape:current-layer="layer1"
     inkscape:document-units="mm"
     inkscape:cy="248.93196"
     inkscape:cx="284.67635"
     inkscape:zoom="1.979899"
     inkscape:pageshadow="2"
     inkscape:pageopacity="0.0"
     borderopacity="1.0"
     bordercolor="#666666"
     pagecolor="#ffffff"
     id="base">
    <sodipodi:guide
       id="guide845"
       orientation="1,0"
       position="5.8774504,242.38245" />
    <sodipodi:guide
       id="guide1479"
       orientation="0,-1"
       position="102.50329,248.07173" />
    <sodipodi:guide
       id="guide1495"
       orientation="1,0"
       position="141.04234,259.84656" />
    <sodipodi:guide
       id="guide4113"
       orientation="1,0"
       position="33.25404,248.07173" />
    <sodipodi:guide
       id="guide4115"
       orientation="1,0"
       position="77.500879,248.07173" />
    <sodipodi:guide
       id="guide4117"
       orientation="1,0"
       position="97.500881,248.07173" />
  </sodipodi:namedview>
  <metadata
     id="metadata5">
    <rdf:RDF>
      <cc:Work
         rdf:about="">
        <dc:format>image/svg+xml</dc:format>
        <dc:type
           rdf:resource="http://purl.org/dc/dcmitype/StillImage" />
        <dc:title />
      </cc:Work>
    </rdf:RDF>
  </metadata>
  <g
     id="layer1"
     inkscape:groupmode="layer"
     inkscape:label="Layer 1">
    <text
       id="text882"
       y="107.89902"
       x="45.648098"
       style="font-weight:300;font-size:4.5861px;line-height:1.25;font-family:Roboto;-inkscape-font-specification:'Roboto Light';letter-spacing:0px;word-spacing:0px;stroke-width:0.264583"
       xml:space="preserve"><tspan
         style="stroke-width:0.264583"
         y="107.89902"
         x="45.648098"
         id="tspan880"
         sodipodi:role="line" /></text>
    <rect
       y="6.747293"
       x="18.256516"
       height="84.361977"
       width="10"
       id="rect843"
       style="opacity:0.994;fill:#cccccc;fill-opacity:0.466301;stroke-width:0.180902;stroke-linecap:round;stroke-linejoin:round;paint-order:markers fill stroke;filter:url(#filter2753)"
       transform="matrix(1,0,0,0.92301429,0,3.7667781)" />
    <g
       style="opacity:0.994;filter:url(#filter2777)"
       inkscape:label=""
       transform="matrix(0.8,0,0,0.8,-52.502237,-14.923368)"
       id="g1266">
      <g
         id="g2584">
        <g
           id="g6114"
           style="fill:#000000;fill-opacity:1">
          <use
             height="100%"
             width="100%"
             id="use3111"
             y="81.962997"
             x="91.925003"
             xlink:href="#symbol6042" />
        </g>
      </g>
    </g>
    <rect
       style="opacity:0.994;fill:#cccccc;fill-opacity:0.466301;stroke-width:0.180902;stroke-linecap:round;stroke-linejoin:round;paint-order:markers fill stroke;filter:url(#filter2761)"
       id="rect866"
       width="10"
       height="84.361977"
       x="146.75005"
       y="6.747293"
       transform="matrix(1,0,0,0.92301429,0,3.7667781)" />
    <g
       style="opacity:0.994;filter:url(#filter2785)"
       inkscape:label=""
       transform="matrix(0.8,0,0,0.8,26.424299,33.446538)"
       id="g1457">
      <g
         transform="translate(60.697689,-58.912697)"
         id="g4618">
        <g
           id="g7218"
           style="fill:#000000;fill-opacity:1">
          <use
             height="100%"
             width="100%"
             id="use9491"
             y="81.962997"
             x="91.925003"
             xlink:href="#symbol781" />
        </g>
        <g
           id="g5816"
           style="fill:#000000;fill-opacity:1">
          <use
             height="100%"
             width="100%"
             id="use9081"
             y="78.348"
             x="97.619003"
             xlink:href="#symbol1421" />
        </g>
      </g>
    </g>
    <path
       transform="matrix(0.26458333,0,0,0.2442142,0.79361674,3.7667781)"
       d="M 141.5918,46.685547 V 323.16602 l 129.4375,-72.55079 v -131.3789 z"
       style="opacity:0.994;fill:none;stroke:#000000;stroke-width:0.647512;stroke-linecap:round;stroke-linejoin:round;stroke-opacity:1;paint-order:markers fill stroke;filter:url(#filter2749)"
       id="rect835" />
    <g
       transform="translate(-6.4111025e-7,2.3131979)"
       id="g3181">
      <g
         id="g1089"
         transform="matrix(0.8,0,0,0.8,-25.729753,-14.648368)"
         inkscape:label=""
         style="opacity:0.994;filter:url(#filter2769)">
        <g
           id="g9180">
          <g
             style="fill:#000000;fill-opacity:1"
             id="g792">
            <use
               xlink:href="#symbol1872"
               x="91.925003"
               y="81.962997"
               id="use245"
               width="100%"
               height="100%" />
          </g>
          <g
             style="fill:#000000;fill-opacity:1"
             id="g7364">
            <use
               xlink:href="#symbol5820"
               x="97.875"
               y="81.962997"
               id="use8042"
               width="100%"
               height="100%" />
          </g>
          <g
             style="fill:#000000;fill-opacity:1"
             id="g3620">
            <use
               xlink:href="#symbol4190"
               x="101.75"
               y="81.962997"
               id="use7180"
               width="100%"
               height="100%" />
          </g>
          <g
             style="fill:#000000;fill-opacity:1"
             id="g9446">
            <use
               xlink:href="#symbol7285"
               x="107.443"
               y="81.962997"
               id="use6276"
               width="100%"
               height="100%" />
          </g>
        </g>
      </g>
      <text
         id="text3026"
         y="43.746506"
         x="46.901936"
         style="font-weight:300;font-size:4.5861px;line-height:1.25;font-family:Roboto;-inkscape-font-specification:'Roboto Light';letter-spacing:0px;word-spacing:0px;stroke-width:0.264583"
         xml:space="preserve"><tspan
           style="font-style:normal;font-variant:normal;font-weight:normal;font-stretch:normal;font-family:Roboto;-inkscape-font-specification:Roboto;stroke-width:0.264583"
           y="43.746506"
           x="46.901936"
           id="tspan3024"
           sodipodi:role="line">Enkoder</tspan></text>
    </g>
    <g
       id="g6578"
       transform="matrix(0.8,0,0,0.8,3.0353335,19.907131)">
      <g
         style="fill:#000000;fill-opacity:1"
         id="g7983">
        <use
           xlink:href="#symbol9933"
           x="91.925003"
           y="81.962997"
           id="use8473"
           width="100%"
           height="100%" />
      </g>
      <g
         style="fill:#000000;fill-opacity:1"
         id="g9506">
        <use
           xlink:href="#symbol60"
           x="97.619003"
           y="78.348"
           id="use1350"
           width="100%"
           height="100%" />
      </g>
      <g
         style="fill:#000000;fill-opacity:1"
         id="g4022">
        <use
           xlink:href="#symbol7810"
           x="103.182"
           y="81.962997"
           id="use4469"
           width="100%"
           height="100%" />
      </g>
      <g
         style="fill:#000000;fill-opacity:1"
         id="g5702">
        <use
           xlink:href="#symbol9933"
           x="113.698"
           y="81.962997"
           id="use405"
           width="100%"
           height="100%" />
      </g>
    </g>
    <rect
       style="opacity:0.994;fill:#cccccc;fill-opacity:0.466301;stroke-width:0.0955789;stroke-linecap:round;stroke-linejoin:round;paint-order:markers fill stroke;filter:url(#filter2757)"
       id="rect843-3"
       width="10"
       height="23.549654"
       x="82.503288"
       y="37.153454"
       transform="matrix(1,0,0,0.92301429,0,3.7667781)" />
    <g
       style="opacity:0.994;filter:url(#filter2781)"
       inkscape:label=""
       transform="matrix(0.8,0,0,0.8,11.569536,-13.917118)"
       id="g1354">
      <g
         id="g7546">
        <g
           id="g8791"
           style="fill:#000000;fill-opacity:1">
          <use
             height="100%"
             width="100%"
             id="use1481"
             y="81.962997"
             x="91.925003"
             xlink:href="#symbol5322" />
        </g>
      </g>
    </g>
    <text
       id="text2972"
       y="30.318132"
       x="87.238014"
       style="font-weight:300;font-size:3.88056px;line-height:1.25;font-family:Roboto;-inkscape-font-specification:'Roboto Light';letter-spacing:0px;word-spacing:0px;stroke-width:0.264583"
       xml:space="preserve"><tspan
         style="font-style:normal;font-variant:normal;font-weight:normal;font-stretch:normal;font-size:3.88056px;font-family:Roboto;-inkscape-font-specification:Roboto;text-align:center;text-anchor:middle;stroke-width:0.264583"
         y="30.318132"
         x="87.238014"
         id="tspan2970"
         sodipodi:role="line">latentna</tspan><tspan
         id="tspan2974"
         style="font-style:normal;font-variant:normal;font-weight:normal;font-stretch:normal;font-size:3.88056px;font-family:Roboto;-inkscape-font-specification:Roboto;text-align:center;text-anchor:middle;stroke-width:0.264583"
         y="35.168835"
         x="87.238014"
         sodipodi:role="line">reprezentacija</tspan></text>
    <path
       id="path876"
       style="opacity:0.994;fill:none;stroke:#000000;stroke-width:0.171321;stroke-linecap:round;stroke-linejoin:round;stroke-opacity:1;paint-order:markers fill stroke;filter:url(#filter2765)"
       d="M 136.7503,12.352217 V 85.504342 L 102.50329,66.308612 V 31.547945 Z"
       transform="matrix(1,0,0,0.92301429,0,3.7667781)" />
    <g
       transform="translate(-1.3899898e-6,2.3131978)"
       id="g3199">
      <g
         id="g1173"
         transform="matrix(0.8,0,0,0.8,38.98469,-14.648368)"
         inkscape:label=""
         style="opacity:0.994;filter:url(#filter2773)">
        <g
           id="g4510">
          <g
             style="fill:#000000;fill-opacity:1"
             id="g3604">
            <use
               xlink:href="#symbol2140"
               x="91.925003"
               y="81.962997"
               id="use6529"
               width="100%"
               height="100%" />
          </g>
          <g
             style="fill:#000000;fill-opacity:1"
             id="g7090">
            <use
               xlink:href="#symbol9310"
               x="97.035004"
               y="81.962997"
               id="use150"
               width="100%"
               height="100%" />
          </g>
          <g
             style="fill:#000000;fill-opacity:1"
             id="g9885">
            <use
               xlink:href="#symbol8177"
               x="100.909"
               y="81.962997"
               id="use4256"
               width="100%"
               height="100%" />
          </g>
          <g
             style="fill:#000000;fill-opacity:1"
             id="g4196">
            <use
               xlink:href="#symbol7864"
               x="106.649"
               y="81.962997"
               id="use6088"
               width="100%"
               height="100%" />
          </g>
        </g>
      </g>
      <text
         xml:space="preserve"
         style="font-weight:300;font-size:4.5861px;line-height:1.25;font-family:Roboto;-inkscape-font-specification:'Roboto Light';letter-spacing:0px;word-spacing:0px;stroke-width:0.264583"
         x="110.99875"
         y="43.746506"
         id="text3185"><tspan
           sodipodi:role="line"
           id="tspan3183"
           x="110.99875"
           y="43.746506"
           style="font-style:normal;font-variant:normal;font-weight:normal;font-stretch:normal;font-family:Roboto;-inkscape-font-specification:Roboto;stroke-width:0.264583">Dekoder</tspan></text>
    </g>
    <path
       inkscape:original-d="m 29.420527,48.928271 h 7.671906"
       inkscape:path-effect="#path-effect4121"
       id="path4119"
       d="m 29.420527,48.928271 c 0,0 7.671906,0 7.671906,0"
       style="fill:none;stroke:#000000;stroke-width:0.232;stroke-linecap:butt;stroke-linejoin:miter;stroke-miterlimit:4;stroke-dasharray:none;stroke-opacity:1;marker-end:url(#Arrow2Mend)" />
    <path
       style="fill:none;stroke:#000000;stroke-width:0.232;stroke-linecap:butt;stroke-linejoin:miter;stroke-miterlimit:4;stroke-dasharray:none;stroke-opacity:1;marker-end:url(#marker4167)"
       d="m 73.489553,48.928271 c 0,0 7.671906,0 7.671906,0"
       id="path4161"
       inkscape:path-effect="#path-effect4163"
       inkscape:original-d="m 73.489553,48.928271 h 7.671906" />
    <path
       inkscape:original-d="m 93.489555,48.928271 h 7.671905"
       inkscape:path-effect="#path-effect4243"
       id="path4241"
       d="m 93.489555,48.928271 c 0,0 7.671905,0 7.671905,0"
       style="fill:none;stroke:#000000;stroke-width:0.232;stroke-linecap:butt;stroke-linejoin:miter;stroke-miterlimit:4;stroke-dasharray:none;stroke-opacity:1;marker-end:url(#marker4247)" />
    <path
       style="fill:none;stroke:#000000;stroke-width:0.232;stroke-linecap:butt;stroke-linejoin:miter;stroke-miterlimit:4;stroke-dasharray:none;stroke-opacity:1;marker-end:url(#marker4329)"
       d="m 137.03101,48.928271 c 0,0 7.67191,0 7.67191,0"
       id="path4323"
       inkscape:path-effect="#path-effect4325"
       inkscape:original-d="m 137.03101,48.928271 h 7.67191" />
  </g>
</svg>
